# xmcd
#
# Track frame offsets: 
#        150
#        41450
#        65500
#        104200
#        124825
#        168250
#
# Disc length: 2539 seconds
#
# Revision: 4
# Processed by: cddbd v1.5.2PL0 Copyright (c) Steve Scherf et al.
# Submitted via: ExactAudioCopyFreeDBPlugin 1.0
#
DISCID=5109e906
DTITLE=Miles Davis - Someday My Prince Will Come (MFSL MFCD 828)
DYEAR=1961
DGENRE=Jazz
TTITLE0=Someday My Prince Will Come
TTITLE1=Old Folks
TTITLE2=Pfrancing
TTITLE3=Drad-Dog
TTITLE4=Teo
TTITLE5=I Thought About You
EXTD=Prod - Teo Macero\nw/\nJohn Coltrane, Wynton Kelly, Paul Chambers
EXTD=,Hank Mobley, Jimmy Cobb.\nColumbia/ Mobile Fidelity Sound Labs  
EXTD=mfcd 828 YEAR: 1961
EXTT0=
EXTT1=
EXTT2=
EXTT3=
EXTT4=
EXTT5=
PLAYORDER=
